<svg width="20" height="28" viewBox="0 0 20 28" fill="none" xmlns="http://www.w3.org/2000/svg">
<g filter="url(#filter0_f_50220_7120)">
<ellipse cx="10" cy="23.5" rx="4" ry="0.5" fill="#273746"/>
</g>
<circle cx="10" cy="10" r="10" fill="#273746"/>
<path d="M9.77218 8.81636L8.37794 10.1269L4.11157 6H6.78851L9.77218 8.81636Z" fill="#0036F9"/>
<path d="M8.3779 10.127L9.77214 11.4933L6.90001 14.2539H4L8.3779 10.127Z" fill="#0036F9"/>
<path d="M15.6001 14.2539H12.6722L9.80005 11.4933L8.37793 10.127L9.80005 8.81641L11.1943 10.127L15.6001 14.2539Z" fill="#03BDFF"/>
<path d="M15.4885 6L11.1943 10.1269L9.80005 11.4933L8.37793 10.1269L9.80005 8.81636L12.7837 6H15.4885Z" fill="#03BDFF"/>
<rect x="10" y="14" width="6" height="6" transform="rotate(45 10 14)" fill="#273746"/>
<defs>
<filter id="filter0_f_50220_7120" x="2" y="19" width="16" height="9" filterUnits="userSpaceOnUse" color-interpolation-filters="sRGB">
<feFlood flood-opacity="0" result="BackgroundImageFix"/>
<feBlend mode="normal" in="SourceGraphic" in2="BackgroundImageFix" result="shape"/>
<feGaussianBlur stdDeviation="2" result="effect1_foregroundBlur_50220_7120"/>
</filter>
</defs>
</svg>
